<svg width="635" height="764" viewBox="0 0 635 764" fill="none" xmlns="http://www.w3.org/2000/svg">
<path fill-rule="evenodd" clip-rule="evenodd" d="M2.58971e-09 154.582C0.000142002 196.108 5.83987 235.957 22.3068 264C52.4473 315.328 107.345 329.432 152.239 340.965C182.564 348.756 208.325 355.374 218.807 371.5C228.418 386.287 228.6 410.026 228.8 436.097C229.141 480.551 229.534 531.787 276.81 557C312.517 576.044 321.931 603.36 331.76 631.882C342.576 663.268 353.896 696.114 401.31 721C451.731 747.464 552.122 759.135 635 763.445V0H20.7048C11.063 37.0917 -0.000195449 97.4248 2.58971e-09 154.582Z" fill="#FFE29C"/>
</svg>
